<mxfile host="app.diagrams.net" modified="2023-06-28T15:58:37.070Z" agent="Mozilla/5.0 (Windows NT 10.0; Win64; x64) AppleWebKit/537.36 (KHTML, like Gecko) Chrome/114.0.0.0 Safari/537.36" version="21.2.1" etag="BehPpI55nfdwZDfywcZr" type="github">
  <diagram name="Page-1" id="Zd8IvF-xpHczOG3PoE7k">
    <mxGraphModel>
      <root>
        <mxCell id="0" />
        <mxCell id="1" parent="0" />
      </root>
    </mxGraphModel>
  </diagram>
</mxfile>
